<mxfile host="www.draw.io" modified="2019-10-25T17:32:21.462Z" agent="Mozilla/5.0 (Windows NT 10.0; Win64; x64) AppleWebKit/537.36 (KHTML, like Gecko) Chrome/77.0.3865.120 Safari/537.36" etag="M19MnrOujfYKlfd25HpX" version="12.1.7" type="github" pages="1">
  <diagram id="rwCzeXzMKJZECigRZFu8" name="Page-1">
    <mxGraphModel dx="854" dy="468" grid="1" gridSize="10" guides="1" tooltips="1" connect="1" arrows="1" fold="1" page="1" pageScale="1" pageWidth="827" pageHeight="1169" math="0" shadow="0">
      <root>
        <mxCell id="0"/>
        <mxCell id="1" parent="0"/>
        <mxCell id="yXwIp1TPtq5uOMqV-L0E-1" value="usuarios" style="swimlane;fontStyle=0;childLayout=stackLayout;horizontal=1;startSize=26;fillColor=#e0e0e0;horizontalStack=0;resizeParent=1;resizeParentMax=0;resizeLast=0;collapsible=1;marginBottom=0;swimlaneFillColor=#ffffff;align=center;fontSize=14;" vertex="1" parent="1">
          <mxGeometry x="230" y="60" width="160" height="222" as="geometry"/>
        </mxCell>
        <mxCell id="yXwIp1TPtq5uOMqV-L0E-2" value="id" style="shape=partialRectangle;top=0;left=0;right=0;bottom=1;align=left;verticalAlign=middle;fillColor=none;spacingLeft=34;spacingRight=4;overflow=hidden;rotatable=0;points=[[0,0.5],[1,0.5]];portConstraint=eastwest;dropTarget=0;fontStyle=5;fontSize=12;" vertex="1" parent="yXwIp1TPtq5uOMqV-L0E-1">
          <mxGeometry y="26" width="160" height="30" as="geometry"/>
        </mxCell>
        <mxCell id="yXwIp1TPtq5uOMqV-L0E-3" value="PK" style="shape=partialRectangle;top=0;left=0;bottom=0;fillColor=none;align=left;verticalAlign=middle;spacingLeft=4;spacingRight=4;overflow=hidden;rotatable=0;points=[];portConstraint=eastwest;part=1;fontSize=12;" vertex="1" connectable="0" parent="yXwIp1TPtq5uOMqV-L0E-2">
          <mxGeometry width="30" height="30" as="geometry"/>
        </mxCell>
        <mxCell id="yXwIp1TPtq5uOMqV-L0E-4" value="name" style="shape=partialRectangle;top=0;left=0;right=0;bottom=0;align=left;verticalAlign=top;fillColor=none;spacingLeft=34;spacingRight=4;overflow=hidden;rotatable=0;points=[[0,0.5],[1,0.5]];portConstraint=eastwest;dropTarget=0;fontSize=12;" vertex="1" parent="yXwIp1TPtq5uOMqV-L0E-1">
          <mxGeometry y="56" width="160" height="26" as="geometry"/>
        </mxCell>
        <mxCell id="yXwIp1TPtq5uOMqV-L0E-5" value="" style="shape=partialRectangle;top=0;left=0;bottom=0;fillColor=none;align=left;verticalAlign=top;spacingLeft=4;spacingRight=4;overflow=hidden;rotatable=0;points=[];portConstraint=eastwest;part=1;fontSize=12;" vertex="1" connectable="0" parent="yXwIp1TPtq5uOMqV-L0E-4">
          <mxGeometry width="30" height="26" as="geometry"/>
        </mxCell>
        <mxCell id="yXwIp1TPtq5uOMqV-L0E-6" value="lastname" style="shape=partialRectangle;top=0;left=0;right=0;bottom=0;align=left;verticalAlign=top;fillColor=none;spacingLeft=34;spacingRight=4;overflow=hidden;rotatable=0;points=[[0,0.5],[1,0.5]];portConstraint=eastwest;dropTarget=0;fontSize=12;" vertex="1" parent="yXwIp1TPtq5uOMqV-L0E-1">
          <mxGeometry y="82" width="160" height="26" as="geometry"/>
        </mxCell>
        <mxCell id="yXwIp1TPtq5uOMqV-L0E-7" value="" style="shape=partialRectangle;top=0;left=0;bottom=0;fillColor=none;align=left;verticalAlign=top;spacingLeft=4;spacingRight=4;overflow=hidden;rotatable=0;points=[];portConstraint=eastwest;part=1;fontSize=12;" vertex="1" connectable="0" parent="yXwIp1TPtq5uOMqV-L0E-6">
          <mxGeometry width="30" height="26" as="geometry"/>
        </mxCell>
        <mxCell id="yXwIp1TPtq5uOMqV-L0E-8" value="email" style="shape=partialRectangle;top=0;left=0;right=0;bottom=0;align=left;verticalAlign=top;fillColor=none;spacingLeft=34;spacingRight=4;overflow=hidden;rotatable=0;points=[[0,0.5],[1,0.5]];portConstraint=eastwest;dropTarget=0;fontSize=12;" vertex="1" parent="yXwIp1TPtq5uOMqV-L0E-1">
          <mxGeometry y="108" width="160" height="26" as="geometry"/>
        </mxCell>
        <mxCell id="yXwIp1TPtq5uOMqV-L0E-9" value="" style="shape=partialRectangle;top=0;left=0;bottom=0;fillColor=none;align=left;verticalAlign=top;spacingLeft=4;spacingRight=4;overflow=hidden;rotatable=0;points=[];portConstraint=eastwest;part=1;fontSize=12;" vertex="1" connectable="0" parent="yXwIp1TPtq5uOMqV-L0E-8">
          <mxGeometry width="30" height="26" as="geometry"/>
        </mxCell>
        <mxCell id="yXwIp1TPtq5uOMqV-L0E-12" value="hash" style="shape=partialRectangle;top=0;left=0;right=0;bottom=0;align=left;verticalAlign=top;fillColor=none;spacingLeft=34;spacingRight=4;overflow=hidden;rotatable=0;points=[[0,0.5],[1,0.5]];portConstraint=eastwest;dropTarget=0;fontSize=12;" vertex="1" parent="yXwIp1TPtq5uOMqV-L0E-1">
          <mxGeometry y="134" width="160" height="26" as="geometry"/>
        </mxCell>
        <mxCell id="yXwIp1TPtq5uOMqV-L0E-13" value="" style="shape=partialRectangle;top=0;left=0;bottom=0;fillColor=none;align=left;verticalAlign=top;spacingLeft=4;spacingRight=4;overflow=hidden;rotatable=0;points=[];portConstraint=eastwest;part=1;fontSize=12;" vertex="1" connectable="0" parent="yXwIp1TPtq5uOMqV-L0E-12">
          <mxGeometry width="30" height="26" as="geometry"/>
        </mxCell>
        <mxCell id="yXwIp1TPtq5uOMqV-L0E-14" value="permisions" style="shape=partialRectangle;top=0;left=0;right=0;bottom=0;align=left;verticalAlign=top;fillColor=none;spacingLeft=34;spacingRight=4;overflow=hidden;rotatable=0;points=[[0,0.5],[1,0.5]];portConstraint=eastwest;dropTarget=0;fontSize=12;" vertex="1" parent="yXwIp1TPtq5uOMqV-L0E-1">
          <mxGeometry y="160" width="160" height="26" as="geometry"/>
        </mxCell>
        <mxCell id="yXwIp1TPtq5uOMqV-L0E-15" value="" style="shape=partialRectangle;top=0;left=0;bottom=0;fillColor=none;align=left;verticalAlign=top;spacingLeft=4;spacingRight=4;overflow=hidden;rotatable=0;points=[];portConstraint=eastwest;part=1;fontSize=12;" vertex="1" connectable="0" parent="yXwIp1TPtq5uOMqV-L0E-14">
          <mxGeometry width="30" height="26" as="geometry"/>
        </mxCell>
        <mxCell id="yXwIp1TPtq5uOMqV-L0E-16" value="tipo_ID" style="shape=partialRectangle;top=0;left=0;right=0;bottom=0;align=left;verticalAlign=top;fillColor=none;spacingLeft=34;spacingRight=4;overflow=hidden;rotatable=0;points=[[0,0.5],[1,0.5]];portConstraint=eastwest;dropTarget=0;fontSize=12;" vertex="1" parent="yXwIp1TPtq5uOMqV-L0E-1">
          <mxGeometry y="186" width="160" height="26" as="geometry"/>
        </mxCell>
        <mxCell id="yXwIp1TPtq5uOMqV-L0E-17" value="" style="shape=partialRectangle;top=0;left=0;bottom=0;fillColor=none;align=left;verticalAlign=top;spacingLeft=4;spacingRight=4;overflow=hidden;rotatable=0;points=[];portConstraint=eastwest;part=1;fontSize=12;" vertex="1" connectable="0" parent="yXwIp1TPtq5uOMqV-L0E-16">
          <mxGeometry width="30" height="26" as="geometry"/>
        </mxCell>
        <mxCell id="yXwIp1TPtq5uOMqV-L0E-10" value="" style="shape=partialRectangle;top=0;left=0;right=0;bottom=0;align=left;verticalAlign=top;fillColor=none;spacingLeft=34;spacingRight=4;overflow=hidden;rotatable=0;points=[[0,0.5],[1,0.5]];portConstraint=eastwest;dropTarget=0;fontSize=12;" vertex="1" parent="yXwIp1TPtq5uOMqV-L0E-1">
          <mxGeometry y="212" width="160" height="10" as="geometry"/>
        </mxCell>
        <mxCell id="yXwIp1TPtq5uOMqV-L0E-11" value="" style="shape=partialRectangle;top=0;left=0;bottom=0;fillColor=none;align=left;verticalAlign=top;spacingLeft=4;spacingRight=4;overflow=hidden;rotatable=0;points=[];portConstraint=eastwest;part=1;fontSize=12;" vertex="1" connectable="0" parent="yXwIp1TPtq5uOMqV-L0E-10">
          <mxGeometry width="30" height="10" as="geometry"/>
        </mxCell>
        <mxCell id="yXwIp1TPtq5uOMqV-L0E-18" value="tiposDeUsuarios" style="swimlane;fontStyle=0;childLayout=stackLayout;horizontal=1;startSize=26;fillColor=#e0e0e0;horizontalStack=0;resizeParent=1;resizeParentMax=0;resizeLast=0;collapsible=1;marginBottom=0;swimlaneFillColor=#ffffff;align=center;fontSize=14;" vertex="1" parent="1">
          <mxGeometry x="440" y="60" width="160" height="118" as="geometry"/>
        </mxCell>
        <mxCell id="yXwIp1TPtq5uOMqV-L0E-19" value="id" style="shape=partialRectangle;top=0;left=0;right=0;bottom=1;align=left;verticalAlign=middle;fillColor=none;spacingLeft=34;spacingRight=4;overflow=hidden;rotatable=0;points=[[0,0.5],[1,0.5]];portConstraint=eastwest;dropTarget=0;fontStyle=5;fontSize=12;" vertex="1" parent="yXwIp1TPtq5uOMqV-L0E-18">
          <mxGeometry y="26" width="160" height="30" as="geometry"/>
        </mxCell>
        <mxCell id="yXwIp1TPtq5uOMqV-L0E-20" value="PK" style="shape=partialRectangle;top=0;left=0;bottom=0;fillColor=none;align=left;verticalAlign=middle;spacingLeft=4;spacingRight=4;overflow=hidden;rotatable=0;points=[];portConstraint=eastwest;part=1;fontSize=12;" vertex="1" connectable="0" parent="yXwIp1TPtq5uOMqV-L0E-19">
          <mxGeometry width="30" height="30" as="geometry"/>
        </mxCell>
        <mxCell id="yXwIp1TPtq5uOMqV-L0E-21" value="empresa" style="shape=partialRectangle;top=0;left=0;right=0;bottom=0;align=left;verticalAlign=top;fillColor=none;spacingLeft=34;spacingRight=4;overflow=hidden;rotatable=0;points=[[0,0.5],[1,0.5]];portConstraint=eastwest;dropTarget=0;fontSize=12;" vertex="1" parent="yXwIp1TPtq5uOMqV-L0E-18">
          <mxGeometry y="56" width="160" height="26" as="geometry"/>
        </mxCell>
        <mxCell id="yXwIp1TPtq5uOMqV-L0E-22" value="" style="shape=partialRectangle;top=0;left=0;bottom=0;fillColor=none;align=left;verticalAlign=top;spacingLeft=4;spacingRight=4;overflow=hidden;rotatable=0;points=[];portConstraint=eastwest;part=1;fontSize=12;" vertex="1" connectable="0" parent="yXwIp1TPtq5uOMqV-L0E-21">
          <mxGeometry width="30" height="26" as="geometry"/>
        </mxCell>
        <mxCell id="yXwIp1TPtq5uOMqV-L0E-23" value="alumno" style="shape=partialRectangle;top=0;left=0;right=0;bottom=0;align=left;verticalAlign=top;fillColor=none;spacingLeft=34;spacingRight=4;overflow=hidden;rotatable=0;points=[[0,0.5],[1,0.5]];portConstraint=eastwest;dropTarget=0;fontSize=12;" vertex="1" parent="yXwIp1TPtq5uOMqV-L0E-18">
          <mxGeometry y="82" width="160" height="26" as="geometry"/>
        </mxCell>
        <mxCell id="yXwIp1TPtq5uOMqV-L0E-24" value="" style="shape=partialRectangle;top=0;left=0;bottom=0;fillColor=none;align=left;verticalAlign=top;spacingLeft=4;spacingRight=4;overflow=hidden;rotatable=0;points=[];portConstraint=eastwest;part=1;fontSize=12;" vertex="1" connectable="0" parent="yXwIp1TPtq5uOMqV-L0E-23">
          <mxGeometry width="30" height="26" as="geometry"/>
        </mxCell>
        <mxCell id="yXwIp1TPtq5uOMqV-L0E-33" value="" style="shape=partialRectangle;top=0;left=0;right=0;bottom=0;align=left;verticalAlign=top;fillColor=none;spacingLeft=34;spacingRight=4;overflow=hidden;rotatable=0;points=[[0,0.5],[1,0.5]];portConstraint=eastwest;dropTarget=0;fontSize=12;" vertex="1" parent="yXwIp1TPtq5uOMqV-L0E-18">
          <mxGeometry y="108" width="160" height="10" as="geometry"/>
        </mxCell>
        <mxCell id="yXwIp1TPtq5uOMqV-L0E-34" value="" style="shape=partialRectangle;top=0;left=0;bottom=0;fillColor=none;align=left;verticalAlign=top;spacingLeft=4;spacingRight=4;overflow=hidden;rotatable=0;points=[];portConstraint=eastwest;part=1;fontSize=12;" vertex="1" connectable="0" parent="yXwIp1TPtq5uOMqV-L0E-33">
          <mxGeometry width="30" height="10" as="geometry"/>
        </mxCell>
        <mxCell id="yXwIp1TPtq5uOMqV-L0E-35" value="cursos" style="swimlane;fontStyle=0;childLayout=stackLayout;horizontal=1;startSize=26;fillColor=#e0e0e0;horizontalStack=0;resizeParent=1;resizeParentMax=0;resizeLast=0;collapsible=1;marginBottom=0;swimlaneFillColor=#ffffff;align=center;fontSize=14;" vertex="1" parent="1">
          <mxGeometry x="430" y="305" width="160" height="170" as="geometry"/>
        </mxCell>
        <mxCell id="yXwIp1TPtq5uOMqV-L0E-36" value="id" style="shape=partialRectangle;top=0;left=0;right=0;bottom=1;align=left;verticalAlign=middle;fillColor=none;spacingLeft=34;spacingRight=4;overflow=hidden;rotatable=0;points=[[0,0.5],[1,0.5]];portConstraint=eastwest;dropTarget=0;fontStyle=5;fontSize=12;" vertex="1" parent="yXwIp1TPtq5uOMqV-L0E-35">
          <mxGeometry y="26" width="160" height="30" as="geometry"/>
        </mxCell>
        <mxCell id="yXwIp1TPtq5uOMqV-L0E-37" value="PK" style="shape=partialRectangle;top=0;left=0;bottom=0;fillColor=none;align=left;verticalAlign=middle;spacingLeft=4;spacingRight=4;overflow=hidden;rotatable=0;points=[];portConstraint=eastwest;part=1;fontSize=12;" vertex="1" connectable="0" parent="yXwIp1TPtq5uOMqV-L0E-36">
          <mxGeometry width="30" height="30" as="geometry"/>
        </mxCell>
        <mxCell id="yXwIp1TPtq5uOMqV-L0E-38" value="nombre" style="shape=partialRectangle;top=0;left=0;right=0;bottom=0;align=left;verticalAlign=top;fillColor=none;spacingLeft=34;spacingRight=4;overflow=hidden;rotatable=0;points=[[0,0.5],[1,0.5]];portConstraint=eastwest;dropTarget=0;fontSize=12;" vertex="1" parent="yXwIp1TPtq5uOMqV-L0E-35">
          <mxGeometry y="56" width="160" height="26" as="geometry"/>
        </mxCell>
        <mxCell id="yXwIp1TPtq5uOMqV-L0E-39" value="" style="shape=partialRectangle;top=0;left=0;bottom=0;fillColor=none;align=left;verticalAlign=top;spacingLeft=4;spacingRight=4;overflow=hidden;rotatable=0;points=[];portConstraint=eastwest;part=1;fontSize=12;" vertex="1" connectable="0" parent="yXwIp1TPtq5uOMqV-L0E-38">
          <mxGeometry width="30" height="26" as="geometry"/>
        </mxCell>
        <mxCell id="yXwIp1TPtq5uOMqV-L0E-40" value="linkVideo" style="shape=partialRectangle;top=0;left=0;right=0;bottom=0;align=left;verticalAlign=top;fillColor=none;spacingLeft=34;spacingRight=4;overflow=hidden;rotatable=0;points=[[0,0.5],[1,0.5]];portConstraint=eastwest;dropTarget=0;fontSize=12;" vertex="1" parent="yXwIp1TPtq5uOMqV-L0E-35">
          <mxGeometry y="82" width="160" height="26" as="geometry"/>
        </mxCell>
        <mxCell id="yXwIp1TPtq5uOMqV-L0E-41" value="" style="shape=partialRectangle;top=0;left=0;bottom=0;fillColor=none;align=left;verticalAlign=top;spacingLeft=4;spacingRight=4;overflow=hidden;rotatable=0;points=[];portConstraint=eastwest;part=1;fontSize=12;" vertex="1" connectable="0" parent="yXwIp1TPtq5uOMqV-L0E-40">
          <mxGeometry width="30" height="26" as="geometry"/>
        </mxCell>
        <mxCell id="yXwIp1TPtq5uOMqV-L0E-44" value="linkPdf" style="shape=partialRectangle;top=0;left=0;right=0;bottom=0;align=left;verticalAlign=top;fillColor=none;spacingLeft=34;spacingRight=4;overflow=hidden;rotatable=0;points=[[0,0.5],[1,0.5]];portConstraint=eastwest;dropTarget=0;fontSize=12;" vertex="1" parent="yXwIp1TPtq5uOMqV-L0E-35">
          <mxGeometry y="108" width="160" height="26" as="geometry"/>
        </mxCell>
        <mxCell id="yXwIp1TPtq5uOMqV-L0E-45" value="" style="shape=partialRectangle;top=0;left=0;bottom=0;fillColor=none;align=left;verticalAlign=top;spacingLeft=4;spacingRight=4;overflow=hidden;rotatable=0;points=[];portConstraint=eastwest;part=1;fontSize=12;" vertex="1" connectable="0" parent="yXwIp1TPtq5uOMqV-L0E-44">
          <mxGeometry width="30" height="26" as="geometry"/>
        </mxCell>
        <mxCell id="yXwIp1TPtq5uOMqV-L0E-46" value="linkExamen" style="shape=partialRectangle;top=0;left=0;right=0;bottom=0;align=left;verticalAlign=top;fillColor=none;spacingLeft=34;spacingRight=4;overflow=hidden;rotatable=0;points=[[0,0.5],[1,0.5]];portConstraint=eastwest;dropTarget=0;fontSize=12;" vertex="1" parent="yXwIp1TPtq5uOMqV-L0E-35">
          <mxGeometry y="134" width="160" height="26" as="geometry"/>
        </mxCell>
        <mxCell id="yXwIp1TPtq5uOMqV-L0E-47" value="" style="shape=partialRectangle;top=0;left=0;bottom=0;fillColor=none;align=left;verticalAlign=top;spacingLeft=4;spacingRight=4;overflow=hidden;rotatable=0;points=[];portConstraint=eastwest;part=1;fontSize=12;" vertex="1" connectable="0" parent="yXwIp1TPtq5uOMqV-L0E-46">
          <mxGeometry width="30" height="26" as="geometry"/>
        </mxCell>
        <mxCell id="yXwIp1TPtq5uOMqV-L0E-42" value="" style="shape=partialRectangle;top=0;left=0;right=0;bottom=0;align=left;verticalAlign=top;fillColor=none;spacingLeft=34;spacingRight=4;overflow=hidden;rotatable=0;points=[[0,0.5],[1,0.5]];portConstraint=eastwest;dropTarget=0;fontSize=12;" vertex="1" parent="yXwIp1TPtq5uOMqV-L0E-35">
          <mxGeometry y="160" width="160" height="10" as="geometry"/>
        </mxCell>
        <mxCell id="yXwIp1TPtq5uOMqV-L0E-43" value="" style="shape=partialRectangle;top=0;left=0;bottom=0;fillColor=none;align=left;verticalAlign=top;spacingLeft=4;spacingRight=4;overflow=hidden;rotatable=0;points=[];portConstraint=eastwest;part=1;fontSize=12;" vertex="1" connectable="0" parent="yXwIp1TPtq5uOMqV-L0E-42">
          <mxGeometry width="30" height="10" as="geometry"/>
        </mxCell>
        <mxCell id="yXwIp1TPtq5uOMqV-L0E-52" value="empresas" style="swimlane;fontStyle=0;childLayout=stackLayout;horizontal=1;startSize=26;fillColor=#e0e0e0;horizontalStack=0;resizeParent=1;resizeParentMax=0;resizeLast=0;collapsible=1;marginBottom=0;swimlaneFillColor=#ffffff;align=center;fontSize=14;" vertex="1" parent="1">
          <mxGeometry x="230" y="305" width="160" height="274" as="geometry"/>
        </mxCell>
        <mxCell id="yXwIp1TPtq5uOMqV-L0E-53" value="id" style="shape=partialRectangle;top=0;left=0;right=0;bottom=1;align=left;verticalAlign=middle;fillColor=none;spacingLeft=34;spacingRight=4;overflow=hidden;rotatable=0;points=[[0,0.5],[1,0.5]];portConstraint=eastwest;dropTarget=0;fontStyle=5;fontSize=12;" vertex="1" parent="yXwIp1TPtq5uOMqV-L0E-52">
          <mxGeometry y="26" width="160" height="30" as="geometry"/>
        </mxCell>
        <mxCell id="yXwIp1TPtq5uOMqV-L0E-54" value="PK" style="shape=partialRectangle;top=0;left=0;bottom=0;fillColor=none;align=left;verticalAlign=middle;spacingLeft=4;spacingRight=4;overflow=hidden;rotatable=0;points=[];portConstraint=eastwest;part=1;fontSize=12;" vertex="1" connectable="0" parent="yXwIp1TPtq5uOMqV-L0E-53">
          <mxGeometry width="30" height="30" as="geometry"/>
        </mxCell>
        <mxCell id="yXwIp1TPtq5uOMqV-L0E-55" value="empresa" style="shape=partialRectangle;top=0;left=0;right=0;bottom=0;align=left;verticalAlign=top;fillColor=none;spacingLeft=34;spacingRight=4;overflow=hidden;rotatable=0;points=[[0,0.5],[1,0.5]];portConstraint=eastwest;dropTarget=0;fontSize=12;" vertex="1" parent="yXwIp1TPtq5uOMqV-L0E-52">
          <mxGeometry y="56" width="160" height="26" as="geometry"/>
        </mxCell>
        <mxCell id="yXwIp1TPtq5uOMqV-L0E-56" value="" style="shape=partialRectangle;top=0;left=0;bottom=0;fillColor=none;align=left;verticalAlign=top;spacingLeft=4;spacingRight=4;overflow=hidden;rotatable=0;points=[];portConstraint=eastwest;part=1;fontSize=12;" vertex="1" connectable="0" parent="yXwIp1TPtq5uOMqV-L0E-55">
          <mxGeometry width="30" height="26" as="geometry"/>
        </mxCell>
        <mxCell id="yXwIp1TPtq5uOMqV-L0E-57" value="cuit" style="shape=partialRectangle;top=0;left=0;right=0;bottom=0;align=left;verticalAlign=top;fillColor=none;spacingLeft=34;spacingRight=4;overflow=hidden;rotatable=0;points=[[0,0.5],[1,0.5]];portConstraint=eastwest;dropTarget=0;fontSize=12;" vertex="1" parent="yXwIp1TPtq5uOMqV-L0E-52">
          <mxGeometry y="82" width="160" height="26" as="geometry"/>
        </mxCell>
        <mxCell id="yXwIp1TPtq5uOMqV-L0E-58" value="" style="shape=partialRectangle;top=0;left=0;bottom=0;fillColor=none;align=left;verticalAlign=top;spacingLeft=4;spacingRight=4;overflow=hidden;rotatable=0;points=[];portConstraint=eastwest;part=1;fontSize=12;" vertex="1" connectable="0" parent="yXwIp1TPtq5uOMqV-L0E-57">
          <mxGeometry width="30" height="26" as="geometry"/>
        </mxCell>
        <mxCell id="yXwIp1TPtq5uOMqV-L0E-61" value="direccion" style="shape=partialRectangle;top=0;left=0;right=0;bottom=0;align=left;verticalAlign=top;fillColor=none;spacingLeft=34;spacingRight=4;overflow=hidden;rotatable=0;points=[[0,0.5],[1,0.5]];portConstraint=eastwest;dropTarget=0;fontSize=12;" vertex="1" parent="yXwIp1TPtq5uOMqV-L0E-52">
          <mxGeometry y="108" width="160" height="26" as="geometry"/>
        </mxCell>
        <mxCell id="yXwIp1TPtq5uOMqV-L0E-62" value="" style="shape=partialRectangle;top=0;left=0;bottom=0;fillColor=none;align=left;verticalAlign=top;spacingLeft=4;spacingRight=4;overflow=hidden;rotatable=0;points=[];portConstraint=eastwest;part=1;fontSize=12;" vertex="1" connectable="0" parent="yXwIp1TPtq5uOMqV-L0E-61">
          <mxGeometry width="30" height="26" as="geometry"/>
        </mxCell>
        <mxCell id="yXwIp1TPtq5uOMqV-L0E-63" value="localidad" style="shape=partialRectangle;top=0;left=0;right=0;bottom=0;align=left;verticalAlign=top;fillColor=none;spacingLeft=34;spacingRight=4;overflow=hidden;rotatable=0;points=[[0,0.5],[1,0.5]];portConstraint=eastwest;dropTarget=0;fontSize=12;" vertex="1" parent="yXwIp1TPtq5uOMqV-L0E-52">
          <mxGeometry y="134" width="160" height="26" as="geometry"/>
        </mxCell>
        <mxCell id="yXwIp1TPtq5uOMqV-L0E-64" value="" style="shape=partialRectangle;top=0;left=0;bottom=0;fillColor=none;align=left;verticalAlign=top;spacingLeft=4;spacingRight=4;overflow=hidden;rotatable=0;points=[];portConstraint=eastwest;part=1;fontSize=12;" vertex="1" connectable="0" parent="yXwIp1TPtq5uOMqV-L0E-63">
          <mxGeometry width="30" height="26" as="geometry"/>
        </mxCell>
        <mxCell id="yXwIp1TPtq5uOMqV-L0E-65" value="provincia" style="shape=partialRectangle;top=0;left=0;right=0;bottom=0;align=left;verticalAlign=top;fillColor=none;spacingLeft=34;spacingRight=4;overflow=hidden;rotatable=0;points=[[0,0.5],[1,0.5]];portConstraint=eastwest;dropTarget=0;fontSize=12;" vertex="1" parent="yXwIp1TPtq5uOMqV-L0E-52">
          <mxGeometry y="160" width="160" height="26" as="geometry"/>
        </mxCell>
        <mxCell id="yXwIp1TPtq5uOMqV-L0E-66" value="" style="shape=partialRectangle;top=0;left=0;bottom=0;fillColor=none;align=left;verticalAlign=top;spacingLeft=4;spacingRight=4;overflow=hidden;rotatable=0;points=[];portConstraint=eastwest;part=1;fontSize=12;" vertex="1" connectable="0" parent="yXwIp1TPtq5uOMqV-L0E-65">
          <mxGeometry width="30" height="26" as="geometry"/>
        </mxCell>
        <mxCell id="yXwIp1TPtq5uOMqV-L0E-67" value="cp" style="shape=partialRectangle;top=0;left=0;right=0;bottom=0;align=left;verticalAlign=top;fillColor=none;spacingLeft=34;spacingRight=4;overflow=hidden;rotatable=0;points=[[0,0.5],[1,0.5]];portConstraint=eastwest;dropTarget=0;fontSize=12;" vertex="1" parent="yXwIp1TPtq5uOMqV-L0E-52">
          <mxGeometry y="186" width="160" height="26" as="geometry"/>
        </mxCell>
        <mxCell id="yXwIp1TPtq5uOMqV-L0E-68" value="" style="shape=partialRectangle;top=0;left=0;bottom=0;fillColor=none;align=left;verticalAlign=top;spacingLeft=4;spacingRight=4;overflow=hidden;rotatable=0;points=[];portConstraint=eastwest;part=1;fontSize=12;" vertex="1" connectable="0" parent="yXwIp1TPtq5uOMqV-L0E-67">
          <mxGeometry width="30" height="26" as="geometry"/>
        </mxCell>
        <mxCell id="yXwIp1TPtq5uOMqV-L0E-69" value="logo" style="shape=partialRectangle;top=0;left=0;right=0;bottom=0;align=left;verticalAlign=top;fillColor=none;spacingLeft=34;spacingRight=4;overflow=hidden;rotatable=0;points=[[0,0.5],[1,0.5]];portConstraint=eastwest;dropTarget=0;fontSize=12;" vertex="1" parent="yXwIp1TPtq5uOMqV-L0E-52">
          <mxGeometry y="212" width="160" height="26" as="geometry"/>
        </mxCell>
        <mxCell id="yXwIp1TPtq5uOMqV-L0E-70" value="" style="shape=partialRectangle;top=0;left=0;bottom=0;fillColor=none;align=left;verticalAlign=top;spacingLeft=4;spacingRight=4;overflow=hidden;rotatable=0;points=[];portConstraint=eastwest;part=1;fontSize=12;" vertex="1" connectable="0" parent="yXwIp1TPtq5uOMqV-L0E-69">
          <mxGeometry width="30" height="26" as="geometry"/>
        </mxCell>
        <mxCell id="yXwIp1TPtq5uOMqV-L0E-71" value="cursos_ID" style="shape=partialRectangle;top=0;left=0;right=0;bottom=0;align=left;verticalAlign=top;fillColor=none;spacingLeft=34;spacingRight=4;overflow=hidden;rotatable=0;points=[[0,0.5],[1,0.5]];portConstraint=eastwest;dropTarget=0;fontSize=12;" vertex="1" parent="yXwIp1TPtq5uOMqV-L0E-52">
          <mxGeometry y="238" width="160" height="26" as="geometry"/>
        </mxCell>
        <mxCell id="yXwIp1TPtq5uOMqV-L0E-72" value="" style="shape=partialRectangle;top=0;left=0;bottom=0;fillColor=none;align=left;verticalAlign=top;spacingLeft=4;spacingRight=4;overflow=hidden;rotatable=0;points=[];portConstraint=eastwest;part=1;fontSize=12;" vertex="1" connectable="0" parent="yXwIp1TPtq5uOMqV-L0E-71">
          <mxGeometry width="30" height="26" as="geometry"/>
        </mxCell>
        <mxCell id="yXwIp1TPtq5uOMqV-L0E-59" value="" style="shape=partialRectangle;top=0;left=0;right=0;bottom=0;align=left;verticalAlign=top;fillColor=none;spacingLeft=34;spacingRight=4;overflow=hidden;rotatable=0;points=[[0,0.5],[1,0.5]];portConstraint=eastwest;dropTarget=0;fontSize=12;" vertex="1" parent="yXwIp1TPtq5uOMqV-L0E-52">
          <mxGeometry y="264" width="160" height="10" as="geometry"/>
        </mxCell>
        <mxCell id="yXwIp1TPtq5uOMqV-L0E-60" value="" style="shape=partialRectangle;top=0;left=0;bottom=0;fillColor=none;align=left;verticalAlign=top;spacingLeft=4;spacingRight=4;overflow=hidden;rotatable=0;points=[];portConstraint=eastwest;part=1;fontSize=12;" vertex="1" connectable="0" parent="yXwIp1TPtq5uOMqV-L0E-59">
          <mxGeometry width="30" height="10" as="geometry"/>
        </mxCell>
      </root>
    </mxGraphModel>
  </diagram>
</mxfile>
